# xmcd CD database file
#
# Track frame offsets:
#	150
#	25122
#	158544
#	205610
#
# Disc length: 3577 seconds
#
# Revision: 0
# Processed by: cddbd v1.5.2PL0 Copyright (c) Steve Scherf et al.
# Submitted via: CDex 1.70beta2
#
DISCID=210df704
DTITLE=Otomo Yoshihide's New Jazz Orchestra - Live Vol.2 Parallel Circuit
DYEAR=2007
DGENRE=Jazz
TTITLE0=Lupin the Third - Theme of Walther (Afro Lupin '68)
TTITLE1=Double Command O - Mayonaka no Shizuka na Kuroi Kawa no Ue ni Ukabiagaru Shiroi Yuri no Hana
TTITLE2=Something Sweet, Something Tender
TTITLE3=Eureka - Climbers High Ending
EXTD=YEAR: 2007
EXTT0=
EXTT1=
EXTT2=
EXTT3=
PLAYORDER=
